<svg width="35" height="35" viewBox="0 0 35 35" fill="none" xmlns="http://www.w3.org/2000/svg">
    <path d="M29.1667 4.375H5.83333C5.44656 4.375 5.07563 4.52865 4.80214 4.80214C4.52865 5.07563 4.375 5.44656 4.375 5.83333V29.1667C4.375 29.5534 4.52865 29.9244 4.80214 30.1979C5.07563 30.4714 5.44656 30.625 5.83333 30.625H18.3969V20.475H14.9873V16.501H18.3969V13.5844C18.3969 10.1937 20.4677 8.34604 23.501 8.34604C24.5204 8.34313 25.5412 8.39563 26.5562 8.50208V12.0312H24.4635C22.8185 12.0312 22.4977 12.8158 22.4977 13.9635V16.4938H26.4308L25.9204 20.4677H22.4963V30.625H29.1667C29.5534 30.625 29.9244 30.4714 30.1979 30.1979C30.4714 29.9244 30.625 29.5534 30.625 29.1667V5.83333C30.625 5.44656 30.4714 5.07563 30.1979 4.80214C29.9244 4.52865 29.5534 4.375 29.1667 4.375Z" fill="#989DB5"/>
</svg>
