<svg width="35" height="36" viewBox="0 0 35 36" fill="none" xmlns="http://www.w3.org/2000/svg">
    <g clip-path="url(#clip0_2815_15747)">
        <path d="M35.0005 18.1072C35.0005 8.38155 27.1648 0.497803 17.5005 0.497803C7.83172 0.49999 -0.00390625 8.38155 -0.00390625 18.1094C-0.00390625 26.8966 6.39672 34.1809 14.7617 35.5022V23.1975H10.3211V18.1094H14.7661V14.2266C14.7661 9.81437 17.3802 7.37749 21.3767 7.37749C23.293 7.37749 25.2945 7.72093 25.2945 7.72093V12.0522H23.0873C20.9152 12.0522 20.237 13.4106 20.237 14.8041V18.1072H25.0889L24.3145 23.1953H20.2348V35.5C28.5998 34.1787 35.0005 26.8944 35.0005 18.1072Z" fill="white"/>
    </g>
    <defs>
        <clipPath id="clip0_2815_15747">
            <rect width="35" height="35" fill="white" transform="translate(0 0.5)"/>
        </clipPath>
    </defs>
</svg>
