<svg width="35" height="36" viewBox="0 0 35 36" fill="none" xmlns="http://www.w3.org/2000/svg">
    <g clip-path="url(#clip0_2815_15742)">
        <path fill-rule="evenodd" clip-rule="evenodd" d="M17.5 0.5C7.83417 0.5 0 8.33563 0 18C0 27.6644 7.83417 35.5 17.5 35.5C27.1644 35.5 35 27.6644 35 18C35 8.33563 27.1644 0.5 17.5 0.5ZM17.7042 28.2346C12.0633 28.2346 7.49583 23.6554 7.49583 18C7.49583 12.3446 12.0633 7.76542 17.7042 7.76542C20.4604 7.76542 22.7646 8.78187 24.5321 10.4327L21.6533 13.3173V13.3115C20.5815 12.2877 19.2223 11.7627 17.7042 11.7627C14.3354 11.7627 11.5981 14.6152 11.5981 17.9942C11.5981 21.3702 14.3354 24.2315 17.7042 24.2315C20.7608 24.2315 22.8404 22.4785 23.2692 20.0723H17.7042V16.0808H27.3073C27.4356 16.7663 27.5042 17.4808 27.5042 18.2304C27.5042 24.0783 23.6002 28.2346 17.7042 28.2346Z" fill="white"/>
    </g>
    <defs>
        <clipPath id="clip0_2815_15742">
            <rect width="35" height="35" fill="white" transform="translate(0 0.5)"/>
        </clipPath>
    </defs>
</svg>
