<svg width="28" height="28" viewBox="0 0 28 28" fill="none" xmlns="http://www.w3.org/2000/svg">
    <path d="M8.75 9.625C8.75 4.242 12.992 0 18.375 0C23.758 0 28 4.242 28 9.625C28 15.008 23.758 19.25 18.375 19.25C17.49 19.2607 16.6074 19.1548 15.75 18.935V19.25C15.75 19.7141 15.5656 20.1592 15.2374 20.4874C14.9092 20.8156 14.4641 21 14 21H12.25V22.75C12.25 23.2141 12.0656 23.6592 11.7374 23.9874C11.4092 24.3156 10.9641 24.5 10.5 24.5H8.75V25.375C8.75 26.0712 8.47344 26.7389 7.98116 27.2312C7.48887 27.7234 6.82119 28 6.125 28H2.625C1.92881 28 1.26113 27.7234 0.768845 27.2312C0.276562 26.7389 0 26.0712 0 25.375V22.5995C0 21.903 0.2765 21.2345 0.77 20.7445L8.715 12.7977C8.9495 12.5632 9.065 12.1538 8.9635 11.6813C8.82027 11.0052 8.74871 10.316 8.75 9.625ZM22.75 7C22.75 6.53587 22.5656 6.09075 22.2374 5.76256C21.9092 5.43437 21.4641 5.25 21 5.25C20.5359 5.25 20.0908 5.43437 19.7626 5.76256C19.4344 6.09075 19.25 6.53587 19.25 7C19.25 7.46413 19.4344 7.90925 19.7626 8.23744C20.0908 8.56563 20.5359 8.75 21 8.75C21.4641 8.75 21.9092 8.56563 22.2374 8.23744C22.5656 7.90925 22.75 7.46413 22.75 7Z" fill="white"/>
</svg>
