<svg width="450" height="30" viewBox="0 0 450 30" fill="none" xmlns="http://www.w3.org/2000/svg">
    <path fill-rule="evenodd" clip-rule="evenodd" d="M78.346 0.308306C76.2756 0.766313 74.1338 2.28215 72.9589 4.12164C71.5347 6.35027 70.9164 9.53631 70.9222 14.6144C70.9342 25.2131 73.9401 29.022 82.1997 28.9053C89.648 28.8001 92.8148 24.6176 92.8319 14.8645C92.8425 8.66609 91.7568 4.90093 89.2844 2.56136C88.4379 1.76036 87.114 0.905073 86.3426 0.660803C84.5419 0.0904986 80.1966 -0.101187 78.346 0.308306ZM102.095 0.32968C100.383 0.753761 99.2828 1.41804 98.1188 2.7293C96.8226 4.1895 96.3819 5.63544 96.3884 8.40656C96.3987 12.6396 98.2796 14.5978 104.249 16.5886C108.36 17.9596 109.277 18.6951 109.277 20.6191C109.277 22.4372 108.242 23.6881 106.452 24.0324C105.24 24.2655 100.204 23.9856 97.9444 23.5595C97.113 23.4027 97.0814 23.4584 96.8606 25.46C96.6914 26.9935 96.7404 27.592 97.0511 27.7938C97.7629 28.2569 102.867 28.9667 105.409 28.9565C108.509 28.9436 110.744 28.1429 112.265 26.5002C113.925 24.7069 114.528 22.9868 114.517 20.0715C114.502 15.5745 113.11 14.0441 107.013 11.8199C102.491 10.1704 101.736 9.63503 101.602 7.9879C101.379 5.22222 103.827 4.36693 110.041 5.03969C111.969 5.248 113.58 5.37353 113.623 5.31823C113.841 5.03359 114.068 0.975301 113.866 0.966141C113.736 0.960373 112.178 0.734423 110.406 0.464029C106.829 -0.0815086 103.941 -0.127989 102.095 0.32968ZM124.379 0.430102C122.512 0.959355 121.48 1.66028 120.426 3.11369C118.682 5.52009 118.487 6.6529 118.48 14.378C118.475 21.055 118.522 21.6263 119.225 23.4743C120.533 26.9087 122.614 28.4038 126.869 28.9667C128.393 29.1685 134.537 28.6498 135.571 28.2318C135.904 28.0975 136.032 27.4491 136.032 25.9052V23.7647L131.761 23.9496C126.377 24.183 125.386 23.8462 124.35 21.4292C123.734 19.9938 123.653 19.1979 123.647 14.5476C123.64 9.89389 123.718 9.1068 124.326 7.70597C124.703 6.83542 125.381 5.8692 125.831 5.55843C126.793 4.89517 129.812 4.73978 133.534 5.16183L136.032 5.44545V3.2382C136.032 1.10253 136.004 1.02483 135.146 0.840952C130.691 -0.114417 126.82 -0.261998 124.379 0.430102ZM147.154 0.268613C145.184 0.679801 144.246 1.17038 142.795 2.55017C140.308 4.91552 139.267 8.45439 139.267 14.5476C139.267 24.8192 142.363 28.8737 150.216 28.8856C158.163 28.8975 161.159 25.0638 161.171 14.8645C161.177 9.95767 160.751 7.46035 159.475 4.93181C157.797 1.6043 155.591 0.319842 151.217 0.123746C149.691 0.055215 147.863 0.120354 147.154 0.268613ZM5.67629 1.23145C5.37361 2.29233 0 27.7246 0 28.0965C0 28.3211 0.96222 28.4574 2.54658 28.4574H5.09284L5.63084 25.913L6.16853 23.3685H10.9306H15.6927L16.0892 25.3192C16.7803 28.719 16.5076 28.4574 19.3627 28.4574C20.7691 28.4574 21.9199 28.3703 21.9199 28.2637C21.9199 28.1572 20.6144 21.9683 19.0188 14.5103C17.4231 7.05255 16.1176 0.879968 16.1176 0.794134C16.1176 0.70796 13.8063 0.637732 10.9816 0.637732C6.36967 0.637732 5.82844 0.698461 5.67629 1.23145ZM25.5299 11.7487L25.627 22.8596L26.6185 24.6997C27.8873 27.0539 29.8646 28.2983 33.1026 28.7818C37.7825 29.4803 42.0937 28.2264 43.866 25.6517C45.4413 23.3627 45.5428 22.5603 45.6908 11.2398L45.8291 0.637732H43.0617H40.294V10.8326C40.294 22.0759 40.2247 22.5234 38.3202 23.5595C36.9012 24.332 33.6419 24.2679 32.5759 23.4465C30.7176 22.0145 30.6244 21.4001 30.6241 10.5612L30.6234 0.637732H28.0282H25.4332L25.5299 11.7487ZM48.9975 3.01259V5.38744H52.5434H56.0892V16.9224V28.4574H58.8292H61.5692V16.9224V5.38744H65.1151H68.6609V3.01259V0.637732H58.8292H48.9975V3.01259ZM166.011 14.5476V28.4574H168.751H171.491V24.4229V20.3884L175.118 20.2242C179.735 20.0155 180.956 19.6067 182.823 17.6444C184.768 15.5996 185.494 13.1895 185.281 9.48745C185.096 6.28072 184.097 3.7186 182.545 2.47248C180.603 0.913555 179.055 0.637732 172.246 0.637732H166.011V14.5476ZM189.543 14.5476V28.4574H198.085H206.628V26.0826V23.7077H200.653H194.678L194.77 20.2303L194.862 16.7528L199.616 16.6588L204.371 16.5652V14.3688V12.1727H199.536H194.701V8.78009V5.38744H200.664H206.628V3.01259V0.637732H198.085H189.543V14.5476ZM84.3292 5.35657C85.341 5.84002 85.8342 6.37741 86.4245 7.63914C87.1378 9.16447 87.1962 9.68592 87.1962 14.5476C87.1962 19.301 87.1272 19.9534 86.4777 21.3403C85.5306 23.3627 84.3308 24.0799 81.8735 24.0921C78.2667 24.1104 76.8832 22.4599 76.3387 17.4897C75.8381 12.9188 76.4644 8.47916 77.8892 6.4965C79.1645 4.72248 81.9654 4.22647 84.3292 5.35657ZM153.299 5.54011C154.626 6.45544 155.405 8.57721 155.725 12.149C156.25 18.0274 155.319 22.1603 153.172 23.4808C151.745 24.3588 148.605 24.3123 147.19 23.3919C145.307 22.1675 144.897 20.5879 144.897 14.5584C144.897 9.68559 144.955 9.16481 145.669 7.63914C146.673 5.49261 148.299 4.60781 150.805 4.84326C151.75 4.93181 152.872 5.24563 153.299 5.54011ZM12.0479 5.64189C12.3851 6.85951 14.5058 17.6139 14.5058 18.1065C14.5058 18.5339 13.8872 18.6188 10.7772 18.6188C7.3738 18.6188 7.0637 18.5669 7.22391 18.0251C7.32029 17.6983 7.91309 14.836 8.54136 11.6638C9.16962 8.49171 9.74856 5.70567 9.82819 5.47226C10.0551 4.80594 11.8545 4.94368 12.0479 5.64189ZM178.227 5.70771C179.312 6.31906 179.953 8.02658 179.953 10.3068C179.953 14.3549 178.64 15.5654 174.247 15.5654H171.491V10.2569V4.94843L174.523 5.13876C176.19 5.24359 177.857 5.4994 178.227 5.70771Z" fill="#D92550"/>
    <path fill-rule="evenodd" clip-rule="evenodd" d="M268.488 0.275285C263.091 1.31717 261.156 5.65942 261.525 15.8994C261.722 21.3582 262.194 23.5193 263.652 25.6377C265.451 28.2517 269.395 29.3601 274.732 28.7511C279.42 28.2164 279.157 28.3844 279.157 25.9271V23.7952L274.711 23.9634C268.093 24.2138 267.411 23.6388 266.857 17.3478C266.505 13.3505 266.885 8.76437 267.707 7.09077C268.531 5.41447 269.566 4.92457 272.339 4.89743C273.695 4.8842 275.785 4.99208 276.981 5.13729L279.157 5.40124V3.22282V1.0444L277.142 0.658315C274.318 0.117187 270.242 -0.0629621 268.488 0.275285ZM344.891 0.275963C342.027 0.82659 339.63 2.6939 338.292 5.41616C337.461 7.10808 336.869 10.7514 336.866 14.2031C336.86 20.5474 337.887 24.1633 340.34 26.436C342.156 28.1181 344.412 28.8451 347.818 28.8451C355.904 28.8451 359.166 24.1555 358.692 13.2155C358.397 6.41903 356.657 2.67083 353.035 1.03117C351.233 0.215235 347.168 -0.161688 344.891 0.275963ZM389.053 0.275963C384.749 1.10343 382.22 4.15105 381.323 9.5898C380.837 12.54 381.1 19.5282 381.785 21.8366C383.231 26.7122 386.345 28.8451 392.02 28.8451C400.037 28.8451 403.35 24.0598 402.848 13.2016C402.533 6.38239 400.808 2.66574 397.198 1.03117C395.396 0.215235 391.33 -0.161688 389.053 0.275963ZM414.216 0.391653C410.776 1.21573 408.61 3.36361 407.537 7.01614C406.735 9.74281 406.73 19.2951 407.529 22.0279C409.141 27.541 413.273 29.5389 421.447 28.7572C423.236 28.5859 425.098 28.3589 425.585 28.2524L426.472 28.059V20.792V13.5246H422.765H419.058V15.8994V18.2743H420.347H421.637V21.1143V23.9543L420.089 24.1704C418.223 24.4309 415.674 24.1175 414.47 23.4796C413.165 22.7879 412.592 21.2887 412.207 17.5574C411.805 13.6701 412.242 8.68871 413.121 7.12199C414.22 5.16511 415.183 4.86825 420.264 4.9205C422.788 4.94662 425.218 5.06401 425.663 5.18139C426.464 5.39309 426.472 5.37274 426.472 3.22485V1.05424L423.974 0.654583C420.048 0.0266039 416.176 -0.0775503 414.216 0.391653ZM217.588 3.00738V5.38224H221.134H224.68V16.9172V28.4522H227.258H229.837V16.9172V5.38224H233.383H236.929V3.00738V0.632531H227.258H217.588V3.00738ZM240.797 14.5424V28.4522H249.34H257.882V26.0774V23.7025H251.918H245.955V20.1403V16.578H250.79H255.625V14.3728V12.1675H250.79H245.955V8.77489V5.38224H251.918H257.882V3.00738V0.632531H249.34H240.797V14.5424ZM283.992 14.5424V28.4522H286.571H289.15V22.6847V16.9172H294.308H299.465V22.6847V28.4522H302.044H304.623V14.5424V0.632531H302.044H299.465V6.40003V12.1675H294.308H289.15V6.40003V0.632531H286.571H283.992V14.5424ZM310.748 14.5424V28.4522H313.326H315.905V16.9172C315.905 9.9752 316.025 5.38224 316.207 5.38224C316.524 5.38224 316.632 5.73168 320.649 19.7138L323.158 28.4475L327.59 28.4499L332.023 28.4522V14.5424V0.632531H329.444H326.865V12.1675C326.865 21.3301 326.78 23.7025 326.451 23.7025C326.185 23.7025 324.896 19.5822 322.841 12.1675L319.643 0.632531H315.195H310.748V14.5424ZM363.936 14.5424V28.4522H371.35H378.764V26.0862V23.7202L373.848 23.6265L368.932 23.5329L368.847 12.0827L368.762 0.632531H366.349H363.936V14.5424ZM432.739 8.89906L436.787 17.1652V22.8089V28.4522H439.366H441.945V22.7977V17.1435L445.973 8.88786L450 0.632531H447.165H444.33L441.945 6.08214C440.634 9.07921 439.472 11.5898 439.362 11.6613C439.252 11.7326 438.084 9.28141 436.766 6.21378L434.37 0.636941L431.53 0.634566L428.69 0.632531L432.739 8.89906ZM350.965 5.59564C352.331 6.64634 352.983 8.42408 353.337 12.0661C353.713 15.9252 353.305 20.1633 352.4 21.7931C351.531 23.3595 349.988 24.1548 347.818 24.1548C345.64 24.1548 344.105 23.3589 343.225 21.7738C342.472 20.4164 341.918 15.4187 342.18 12.3372C342.544 8.04614 343.508 5.97527 345.562 5.06638C346.83 4.50558 349.944 4.81058 350.965 5.59564ZM394.135 5.0657C396.686 6.08282 397.541 8.54351 397.538 14.8582C397.535 19.6578 396.969 21.9445 395.501 23.0959C393.407 24.738 389.454 24.5025 387.971 22.6478C386.768 21.1441 386.397 19.2521 386.377 14.5424C386.354 8.61814 387.234 6.12998 389.724 5.0847C390.807 4.63043 393.02 4.62093 394.135 5.0657Z" fill="#EFEFEF"/>
</svg>
