<svg width="1253" height="81" viewBox="0 0 1253 81" fill="none" xmlns="http://www.w3.org/2000/svg">
    <path fill-rule="evenodd" clip-rule="evenodd" d="M218.15 0.858461C212.385 2.13376 206.422 6.35452 203.15 11.4765C199.184 17.682 197.463 26.5533 197.479 40.693C197.512 70.2043 205.882 80.8101 228.881 80.4851C249.62 80.1923 258.438 68.5465 258.485 41.3893C258.515 24.1303 255.492 13.6464 248.607 7.13197C246.25 4.90162 242.564 2.52013 240.416 1.83997C235.402 0.251988 223.303 -0.281748 218.15 0.858461ZM284.277 0.917975C279.512 2.0988 276.447 3.94846 273.206 7.59958C269.597 11.6654 268.37 15.6916 268.388 23.4076C268.417 35.1942 273.654 40.6468 290.275 46.19C301.721 50.0074 304.277 52.0555 304.277 57.4127C304.277 62.4751 301.394 65.9581 296.408 66.9169C293.036 67.5659 279.012 66.7866 272.721 65.6001C270.406 65.1636 270.318 65.3185 269.703 70.8921C269.232 75.1619 269.368 76.8283 270.233 77.3904C272.215 78.6799 286.427 80.6561 293.506 80.6278C302.137 80.5919 308.36 78.3625 312.594 73.7884C317.218 68.7949 318.896 64.0055 318.867 55.888C318.823 43.3664 314.949 39.1051 297.971 32.9119C285.382 28.3189 283.277 26.8282 282.905 22.2419C282.283 14.541 289.101 12.1595 306.404 14.0327C311.77 14.6128 316.258 14.9623 316.376 14.8083C316.985 14.0157 317.616 2.71567 317.053 2.69017C316.691 2.67411 312.355 2.04496 307.418 1.29206C297.46 -0.226956 289.418 -0.356377 284.277 0.917975ZM346.327 1.1976C341.127 2.67127 338.253 4.62295 335.32 8.66989C330.464 15.3704 329.919 18.5246 329.902 40.0346C329.887 58.6265 330.017 60.2174 331.976 65.3629C335.618 74.9258 341.411 79.0889 353.261 80.6561C357.504 81.2182 374.61 79.7738 377.491 78.61C378.417 78.2359 378.775 76.4306 378.775 72.1315V66.1716L366.882 66.6864C351.891 67.3363 349.132 66.3983 346.245 59.6685C344.532 55.6716 344.306 53.4555 344.288 40.507C344.269 27.549 344.487 25.3574 346.178 21.4569C347.23 19.0329 349.116 16.3424 350.37 15.4771C353.049 13.6303 361.454 13.1977 371.819 14.3728L378.775 15.1626V9.01658C378.775 3.06992 378.695 2.85359 376.307 2.34158C363.901 -0.318589 353.124 -0.729518 346.327 1.1976ZM409.741 0.747937C404.256 1.89287 401.646 3.25885 397.606 7.1008C390.679 13.687 387.782 23.5408 387.782 40.507C387.782 69.1076 396.402 80.3973 418.268 80.4303C440.397 80.4634 448.738 69.7887 448.772 41.3893C448.789 27.7266 447.602 20.7729 444.05 13.7323C439.376 4.46708 433.233 0.890581 421.054 0.344565C416.807 0.153743 411.716 0.335119 409.741 0.747937ZM15.8053 3.42889C14.9625 6.38286 0 77.1977 0 78.233C0 78.8584 2.67925 79.2382 7.09081 79.2382H14.1807L15.6788 72.1532L17.1759 65.0682H30.4357H43.6955L44.7996 70.5C46.724 79.9665 45.9646 79.2382 53.9144 79.2382C57.8305 79.2382 61.0348 78.9954 61.0348 78.6988C61.0348 78.4021 57.3997 61.1696 52.9567 40.403C48.5137 19.6374 44.8785 2.45022 44.8785 2.21122C44.8785 1.97128 38.443 1.77573 30.5775 1.77573C17.736 1.77573 16.229 1.94483 15.8053 3.42889ZM71.0867 32.7135L71.3569 63.6512L74.1178 68.7751C77.6507 75.3301 83.1564 78.7951 92.1725 80.1413C105.203 82.0863 117.207 78.5949 122.142 71.4258C126.529 65.0522 126.812 62.818 127.224 31.2965L127.609 1.77573H119.903H112.196V30.1629C112.196 61.469 112.003 62.7151 106.701 65.6001C102.749 67.7511 93.6741 67.5725 90.7058 65.2855C85.5313 61.2981 85.2719 59.5873 85.271 29.4072L85.2692 1.77573H78.0429H70.8175L71.0867 32.7135ZM136.431 8.38838V15.001H146.304H156.177V47.1196V79.2382H163.807H171.436V47.1196V15.001H181.309H191.183V8.38838V1.77573H163.807H136.431V8.38838ZM462.249 40.507V79.2382H469.878H477.508V68.0042V56.7703L487.605 56.3131C500.463 55.7321 503.861 54.5938 509.059 49.1298C514.475 43.4364 516.497 36.7255 515.904 26.4173C515.391 17.4883 512.608 10.3542 508.286 6.88447C502.878 2.54374 498.567 1.77573 479.609 1.77573H462.249V40.507ZM527.772 40.507V79.2382H551.557H575.343V72.6255V66.0129H558.706H542.07L542.326 56.3301L542.582 46.6473L555.821 46.3856L569.06 46.1249V40.0091V33.8943H555.596H542.133V24.4477V15.001H558.738H575.343V8.38838V1.77573H551.557H527.772V40.507ZM234.81 14.9151C237.627 16.2612 239.001 17.7576 240.644 21.2708C242.63 25.518 242.793 26.9699 242.793 40.507C242.793 53.7426 242.601 55.5592 240.792 59.421C238.155 65.0522 234.814 67.0492 227.972 67.0832C217.929 67.1342 214.077 62.5384 212.561 48.6991C211.167 35.9716 212.911 23.6097 216.878 18.0891C220.429 13.1495 228.228 11.7684 234.81 14.9151ZM426.853 15.4261C430.549 17.9748 432.717 23.8828 433.607 33.8282C435.07 50.1964 432.477 61.7043 426.5 65.3809C422.524 67.8257 413.781 67.6963 409.842 65.1334C404.6 61.7241 403.458 57.3257 403.458 40.5372C403.458 26.969 403.62 25.5189 405.607 21.2708C408.402 15.2939 412.929 12.8302 419.908 13.4858C422.539 13.7323 425.663 14.6062 426.853 15.4261ZM33.5467 15.7095C34.4856 19.0999 40.3907 49.0448 40.3907 50.4165C40.3907 51.6068 38.6683 51.8429 30.0085 51.8429C20.5319 51.8429 19.6685 51.6984 20.1146 50.1898C20.3829 49.28 22.0336 41.3099 23.7829 32.4773C25.5323 23.6447 27.1443 15.8871 27.366 15.2372C27.9979 13.3819 33.0082 13.7654 33.5467 15.7095ZM496.262 15.8928C499.285 17.5951 501.069 22.3496 501.069 28.6987C501.069 39.9704 497.412 43.3409 485.182 43.3409H477.508V28.5598V13.7786L485.949 14.3086C490.593 14.6005 495.234 15.3128 496.262 15.8928Z" fill="#D92550"/>
    <path fill-rule="evenodd" clip-rule="evenodd" d="M747.59 0.766597C732.561 3.66766 727.173 15.7584 728.202 44.2712C728.749 59.4708 730.064 65.4883 734.123 71.3868C739.133 78.6655 750.114 81.7517 764.975 80.056C778.029 78.5672 777.296 79.0348 777.296 72.1926V66.2564L764.915 66.7249C746.49 67.4221 744.589 65.8209 743.047 48.304C742.067 37.1739 743.126 24.404 745.416 19.7439C747.709 15.0764 750.59 13.7123 758.311 13.6367C762.088 13.5999 767.906 13.9003 771.238 14.3046L777.296 15.0395V8.97384V2.90815L771.687 1.83312C763.821 0.326383 752.471 -0.175233 747.59 0.766597ZM960.329 0.768485C952.353 2.30167 945.679 7.5011 941.954 15.0811C939.64 19.7921 937.993 29.9369 937.984 39.5479C937.967 57.2131 940.826 67.2813 947.657 73.6096C952.713 78.2933 958.996 80.3177 968.479 80.3177C990.993 80.3177 1000.08 67.2596 998.756 36.798C997.935 17.8735 993.09 7.43687 983.006 2.87131C977.989 0.59939 966.669 -0.450131 960.329 0.768485ZM1083.3 0.768485C1071.31 3.07252 1064.27 11.5584 1061.77 26.7023C1060.42 34.9171 1061.15 54.3753 1063.06 60.8028C1067.08 74.3786 1075.76 80.3177 1091.56 80.3177C1113.88 80.3177 1123.1 66.9932 1121.71 36.7592C1120.83 17.7715 1116.03 7.4227 1105.97 2.87131C1100.96 0.59939 1089.64 -0.450131 1083.3 0.768485ZM1153.36 1.09062C1143.78 3.38521 1137.75 9.36587 1134.76 19.5361C1132.53 27.1284 1132.52 53.7263 1134.74 61.3356C1139.23 76.6864 1150.74 82.2495 1173.49 80.073C1178.47 79.596 1183.66 78.964 1185.02 78.6674L1187.49 78.1289V57.8942V37.6586H1177.16H1166.84V44.2712V50.8838H1170.43H1174.02V58.7916V66.6994L1169.71 67.3012C1164.52 68.0267 1157.42 67.1538 1154.07 65.3778C1150.43 63.4517 1148.84 59.2772 1147.77 48.8878C1146.65 38.0638 1147.86 24.1933 1150.31 19.8309C1153.37 14.382 1156.05 13.5555 1170.2 13.7009C1177.23 13.7737 1184 14.1005 1185.23 14.4274C1187.46 15.0169 1187.49 14.9602 1187.49 8.9795V2.93554L1180.53 1.82273C1169.6 0.0741583 1158.82 -0.215853 1153.36 1.09062ZM605.86 8.37397V14.9866H615.734H625.607V47.1052V79.2238H632.787H639.968V47.1052V14.9866H649.841H659.715V8.37397V1.76133H632.787H605.86V8.37397ZM670.485 40.4925V79.2238H694.271H718.057V72.6111V65.9985H701.452H684.847V56.0795V46.1605H698.31H711.774V40.0202V33.8799H698.31H684.847V24.4333V14.9866H701.452H718.057V8.37397V1.76133H694.271H670.485V40.4925ZM790.76 40.4925V79.2238H797.941H805.121V63.1645V47.1052H819.482H833.843V63.1645V79.2238H841.024H848.204V40.4925V1.76133H841.024H833.843V17.8206V33.8799H819.482H805.121V17.8206V1.76133H797.941H790.76V40.4925ZM865.258 40.4925V79.2238H872.439H879.619V47.1052C879.619 27.7755 879.954 14.9866 880.46 14.9866C881.342 14.9866 881.643 15.9596 892.828 54.8921L899.815 79.2105L912.156 79.2171L924.498 79.2238V40.4925V1.76133H917.317H910.137V33.8799C910.137 59.3924 909.9 65.9985 908.984 65.9985C908.244 65.9985 904.653 54.5255 898.931 33.8799L890.028 1.76133H877.643H865.258V40.4925ZM1013.36 40.4925V79.2238H1034H1054.65V72.6357V66.0476L1040.96 65.7869L1027.27 65.5261L1027.03 33.6437L1026.8 1.76133H1020.08H1013.36V40.4925ZM1204.94 24.779L1216.21 47.7957V63.5102V79.2238H1223.39H1230.57V63.479V47.7353L1241.78 24.7478L1253 1.76133H1245.1H1237.21L1230.57 16.9355C1226.92 25.2806 1223.68 32.2711 1223.38 32.4705C1223.07 32.6688 1219.82 25.8436 1216.15 17.302L1209.48 1.77361L1201.57 1.767L1193.66 1.76133L1204.94 24.779ZM977.242 15.5808C981.045 18.5064 982.86 23.4565 983.847 33.5974C984.893 44.343 983.757 56.1437 981.238 60.6819C978.817 65.0434 974.521 67.2577 968.479 67.2577C962.414 67.2577 958.14 65.0415 955.69 60.6281C953.593 56.8485 952.052 42.9326 952.78 34.3522C953.795 22.4041 956.477 16.6379 962.197 14.1071C965.728 12.5456 974.399 13.3949 977.242 15.5808ZM1097.45 14.1053C1104.55 16.9374 1106.93 23.789 1106.92 41.372C1106.91 54.7362 1105.34 61.1032 1101.25 64.3094C1095.42 68.8816 1084.41 68.226 1080.28 63.0615C1076.93 58.8748 1075.9 53.6064 1075.85 40.4925C1075.78 23.9968 1078.23 17.0687 1085.16 14.1582C1088.18 12.8932 1094.34 12.8668 1097.45 14.1053Z" fill="#EFEFEF"/>
</svg>
