<svg width="34" height="21" viewBox="0 0 34 21" fill="none" xmlns="http://www.w3.org/2000/svg">
    <path d="M1.58205 3.36762e-05C0.708593 3.36762e-05 0 0.696577 0 1.556V19.4441C0 20.3033 0.708695 21 1.58205 21H32.4179C33.2914 21 34 20.3035 34 19.444V1.55597C34 0.696678 33.2913 0 32.4179 0L1.58205 3.36762e-05ZM11.1488 2.52785C13.0895 2.52785 14.872 3.19193 16.2711 4.30118C15.0939 5.3371 14.2159 6.69812 13.7827 8.24078H14.4617C14.8615 6.96814 15.5879 5.83508 16.5452 4.93653C17.5026 5.83508 18.2289 6.96814 18.6288 8.24078H19.3184C18.8792 6.70625 17.9999 5.35335 16.8236 4.32419C18.2254 3.20086 20.0149 2.52782 21.964 2.52782C26.4619 2.52782 30.108 6.11427 30.108 10.5387C30.108 14.9631 26.4619 18.5495 21.964 18.5495C19.9825 18.5495 18.1655 17.8539 16.7535 16.6967C18.0166 15.616 18.9478 14.1672 19.3736 12.5189H18.7095C18.3314 13.9023 17.5703 15.1327 16.5452 16.0949C15.5201 15.1327 14.7601 13.9023 14.382 12.5189H13.7498C14.1781 14.1433 15.0971 15.5718 16.3412 16.6424C14.9318 17.7853 13.1219 18.4722 11.1488 18.4722C6.6509 18.4722 3.00475 14.903 3.00475 10.5C3.00475 6.09705 6.6509 2.52785 11.1488 2.52785ZM21.353 8.15926C20.3745 8.15926 19.4225 9.00066 19.4225 10.5805C19.4225 11.6281 19.9367 12.3193 20.9482 12.3193C21.2342 12.3194 21.6899 12.2044 21.6899 12.2044L21.8407 11.289C21.8407 11.289 21.4249 11.4959 21.1395 11.4959C20.5382 11.4959 20.2969 11.0411 20.2969 10.5523C20.2969 9.5607 20.8143 9.01507 21.3902 9.01507C21.8221 9.01507 22.169 9.25544 22.169 9.25544L22.3072 8.36511C22.3072 8.36511 21.7937 8.15926 21.353 8.15926ZM29.58 8.2366L28.7289 8.23868L28.5462 9.3401C28.5462 9.3401 28.2262 8.91268 27.7259 8.91268C26.948 8.91268 26.3 9.82157 26.3 10.8668C26.3 11.5415 26.6449 12.2033 27.3519 12.2033C27.8605 12.2033 28.1424 11.8596 28.1424 11.8596L28.1052 12.1532H28.9319L29.58 8.2366ZM5.2041 8.24807L4.52625 12.1741H5.3433L5.85969 9.21367L5.93619 12.1741H6.52055L7.61069 9.21367L7.12724 12.1741H7.9953L8.66469 8.24807H7.32169L6.48549 10.6567L6.44194 8.24811L5.2041 8.24807ZM13.7402 8.50305C13.7218 8.52127 13.2462 11.2186 13.2462 11.5471C13.2462 12.0335 13.5234 12.2507 13.9134 12.2472C14.1929 12.2449 14.4094 12.1758 14.5095 12.1469C14.52 12.1441 14.5403 12.1386 14.5403 12.1386L14.6455 11.4363C14.5883 11.4363 14.504 11.4604 14.4298 11.4604C14.1386 11.4604 14.1063 11.308 14.1248 11.1949L14.3597 9.76228H14.8027L14.91 8.98581H14.4925L14.5775 8.50305H13.7402ZM23.6162 8.89807C23.0459 8.89807 22.6089 9.08302 22.6089 9.08302L22.4878 9.80408C22.4878 9.80408 22.8487 9.65671 23.3941 9.65671C23.7038 9.65671 23.9306 9.69155 23.9306 9.94512C23.9306 10.0991 23.903 10.1562 23.903 10.1562C23.903 10.1562 23.6582 10.1353 23.545 10.1353C22.8258 10.1353 22.0702 10.4453 22.0702 11.3778C22.0702 12.1125 22.5663 12.2807 22.8735 12.2807C23.4602 12.2807 23.7133 11.8973 23.7267 11.8961L23.699 12.2159H24.4311L24.7584 9.90857C24.7585 8.92953 23.9106 8.89807 23.6162 8.89807ZM9.88335 8.90225C9.31099 8.90225 8.87185 9.0872 8.87185 9.0872L8.75074 9.80826C8.75074 9.80826 9.11284 9.66089 9.66024 9.66089C9.97107 9.66089 10.1989 9.69587 10.1989 9.9493C10.1989 10.1033 10.1713 10.1604 10.1713 10.1604C10.1713 10.1604 9.92571 10.1395 9.81219 10.1395C9.09027 10.1395 8.33213 10.449 8.33213 11.3809C8.33213 12.1153 8.82915 12.2838 9.13749 12.2838C9.7264 12.2838 9.98035 11.9004 9.99388 11.8993L9.96624 12.219H10.7015L11.0298 9.91275C11.0298 8.93428 10.1789 8.90225 9.88335 8.90225ZM12.4801 8.90225C11.8655 8.90225 11.2412 9.14626 11.2412 9.97963C11.2412 10.9239 12.2814 10.8285 12.2814 11.2263C12.2814 11.4918 11.9911 11.5137 11.7672 11.5137C11.3796 11.5137 11.0311 11.3819 11.0298 11.3883L10.9182 12.1093C10.9383 12.1154 11.1541 12.2106 11.8511 12.2106C12.0383 12.2106 13.108 12.2574 13.108 11.1615C13.108 10.1369 12.1178 10.34 12.1178 9.9284C12.1178 9.72349 12.2786 9.65882 12.5736 9.65882C12.6908 9.65882 13.1421 9.6954 13.1421 9.6954L13.2462 8.96702C13.2462 8.96712 12.9549 8.90225 12.4801 8.90225ZM16.3221 8.90225C15.468 8.90242 14.8357 9.80568 14.8357 10.8261C14.8357 12.0038 15.6279 12.2838 16.303 12.2838C16.9261 12.2838 17.2008 12.1469 17.2008 12.1469L17.3495 11.3433C17.3495 11.3433 16.8755 11.5481 16.4475 11.5481C15.5354 11.5481 15.6952 10.8804 15.6952 10.8804H17.4218C17.4218 10.8804 17.5334 10.3407 17.5334 10.1207C17.5334 9.57161 17.2547 8.90225 16.3221 8.90225ZM19.4151 8.93672C19.0303 8.93672 18.7446 9.44564 18.7446 9.44564L18.8211 8.97852H18.0221L17.4856 12.2034H18.3685C18.6186 10.8263 18.6642 9.70807 19.261 9.91275C19.3654 9.37973 19.4668 9.17381 19.5808 8.94823C19.5808 8.94823 19.5273 8.93672 19.4151 8.93672ZM26.5688 8.93672C26.1841 8.93672 25.8984 9.44564 25.8984 9.44564L25.9749 8.97852H25.1759L24.6393 12.2034H25.5212C25.7714 10.8263 25.8182 9.70807 26.4148 9.91275C26.5194 9.37973 26.6207 9.17381 26.7346 8.94823C26.7346 8.94823 26.681 8.93672 26.5688 8.93672ZM16.3178 9.62956C16.8029 9.62956 16.7142 10.1681 16.7142 10.2116H15.759C15.759 10.156 15.8493 9.62956 16.3178 9.62956ZM27.8598 9.69226C28.1685 9.69215 28.3273 9.89727 28.3273 10.3798C28.3273 10.8177 28.1028 11.4029 27.6377 11.4029C27.3291 11.4029 27.184 11.1522 27.184 10.7592C27.184 10.1165 27.483 9.69226 27.8598 9.69226ZM23.6172 10.7895C23.7432 10.7896 23.7692 10.8017 23.7904 10.8073C23.7874 10.8068 23.7868 10.8073 23.7989 10.8093C23.8149 10.953 23.7107 11.6265 23.2071 11.6265C22.9474 11.6265 22.8809 11.4234 22.8809 11.3036C22.8809 11.0699 23.0046 10.7895 23.6172 10.7895ZM9.88444 10.7926C10.0275 10.7928 10.0431 10.8085 10.0672 10.8125C10.0832 10.956 9.97858 11.6286 9.47324 11.6286C9.21256 11.6286 9.14494 11.4265 9.14494 11.3067C9.14494 11.0732 9.26938 10.7926 9.88444 10.7926Z" fill="#989DB5"/>
</svg>
