<svg width="31" height="32" viewBox="0 0 31 32" fill="none" xmlns="http://www.w3.org/2000/svg">
    <path d="M0 3.60562V28.0939L18.2464 32V0L0 3.60562ZM9.1926 21.5449C3.39215 21.1629 3.98956 10.4882 9.32801 10.4034C15.047 10.7894 14.4859 21.4597 9.1926 21.5449ZM9.27622 12.4935C6.22039 12.7101 6.3572 19.3939 9.22908 19.4476C12.2718 19.2474 12.0931 12.5454 9.27622 12.4935ZM21.3553 16.7506C21.6308 16.9573 21.9627 16.7506 21.9627 16.7506C21.6319 16.9573 31 10.6042 31 10.6042V22.1086C31 23.3609 30.2148 23.8861 29.3319 23.8861H19.3988L19.3994 15.3792L21.3553 16.7506ZM19.3999 6.78463V13.044L21.5424 14.4213C21.5989 14.4382 21.7213 14.4394 21.7778 14.4213L30.9987 8.07419C30.9987 7.32306 30.3124 6.78463 29.9251 6.78463H19.3999Z" fill="white"/>
</svg>
