<svg width="35" height="35" viewBox="0 0 35 35" fill="none" xmlns="http://www.w3.org/2000/svg">
    <g clip-path="url(#clip0_2709_15465)">
        <path d="M34.2708 9.48938C34.0726 8.78243 33.6865 8.14239 33.1537 7.6373C32.6058 7.11668 31.9342 6.74427 31.2024 6.55522C28.4637 5.83334 17.4912 5.83334 17.4912 5.83334C12.9169 5.7813 8.34367 6.0102 3.79742 6.51876C3.06562 6.72178 2.39533 7.10251 1.84617 7.62709C1.30659 8.14626 0.915757 8.78647 0.71159 9.48793C0.221142 12.1301 -0.0171506 14.8128 -7.65036e-05 17.5C-0.0175765 20.1848 0.220132 22.8667 0.71159 25.5121C0.911382 26.2106 1.30076 26.8479 1.8418 27.3627C2.38284 27.8775 3.05659 28.2494 3.79742 28.4463C6.57263 29.1667 17.4912 29.1667 17.4912 29.1667C22.0713 29.2188 26.6503 28.9899 31.2024 28.4813C31.9342 28.2922 32.6058 27.9198 33.1537 27.3992C33.6933 26.8844 34.0768 26.2442 34.2693 25.5471C34.7726 22.906 35.0173 20.2221 34.9999 17.5336C35.0378 14.8336 34.7934 12.1371 34.2708 9.48793V9.48938ZM14.0028 22.4933V12.5081L23.132 17.5015L14.0028 22.4933Z" fill="#989DB5"/>
    </g>
    <defs>
        <clipPath id="clip0_2709_15465">
            <rect width="35" height="35" fill="white"/>
        </clipPath>
    </defs>
</svg>
